<svg width="126" height="32" viewBox="0 0 126 32" fill="none" xmlns="http://www.w3.org/2000/svg">
  <path
    d="M10.8586 4.52412L19.4462 1.73912C21.6031 1.03963 23.6095 3.14944 22.8025 5.26847C22.5067 6.0453 21.8696 6.64236 21.0778 6.89542C19.0954 7.52902 15.1933 8.81104 12.5328 9.90968C10.0868 10.9197 11.5411 15.1064 12.8079 17.8284C13.4015 19.1037 12.8274 20.6754 11.5032 21.1498C10.3401 21.5665 9.05944 20.9614 8.64274 19.7984L6.41296 13.5747C5.07631 9.84393 7.08888 5.74667 10.8586 4.52412Z"
    fill="white" />
  <path
    d="M18.1691 26.8164L9.52007 29.4045C7.34775 30.0545 5.39012 27.8994 6.24528 25.7994C6.55877 25.0295 7.20934 24.4472 8.00671 24.2123C10.0031 23.6241 13.9335 22.4316 16.6184 21.394C19.0868 20.4402 17.7285 16.2213 16.5242 13.4711C15.96 12.1825 16.5699 10.6244 17.9046 10.1804C19.0769 9.79037 20.3434 10.4245 20.7334 11.5968L22.8204 17.8698C24.0714 21.6301 21.9658 25.6803 18.1691 26.8164Z"
    fill="white" />
  <circle cx="14.8245" cy="15.4596" r="1.21359" transform="rotate(-8.40142 14.8245 15.4596)"
    fill="white" />
  <path
    d="M40.427 24.7105C39.579 24.7105 38.835 24.6065 38.195 24.3985C37.571 24.1905 37.035 23.9425 36.587 23.6545C36.155 23.3505 35.811 23.0545 35.555 22.7665C35.299 22.4785 35.123 22.2625 35.027 22.1185C34.755 21.7665 34.587 21.4625 34.523 21.2065C34.459 20.9345 34.491 20.6625 34.619 20.3905C34.763 20.1185 35.003 19.8225 35.339 19.5025C35.675 19.2145 35.987 19.0625 36.275 19.0465C36.579 19.0145 36.875 19.0865 37.163 19.2625C37.451 19.4385 37.731 19.6865 38.003 20.0065C38.387 20.4705 38.763 20.7985 39.131 20.9905C39.515 21.1665 39.915 21.2545 40.331 21.2545C40.859 21.2545 41.307 21.1905 41.675 21.0625C42.043 20.9345 42.323 20.7345 42.515 20.4625C42.707 20.1745 42.803 19.8145 42.803 19.3825C42.803 19.0305 42.667 18.7505 42.395 18.5425C42.139 18.3185 41.787 18.1265 41.339 17.9665C40.907 17.8065 40.419 17.6545 39.875 17.5105C39.347 17.3505 38.819 17.1665 38.291 16.9585C37.923 16.8305 37.571 16.6705 37.235 16.4785C36.899 16.2865 36.579 16.0705 36.275 15.8305C35.971 15.5905 35.707 15.3025 35.483 14.9665C35.275 14.6305 35.107 14.2465 34.979 13.8145C34.867 13.3825 34.811 12.8865 34.811 12.3265C34.811 11.3825 35.043 10.5425 35.507 9.80646C35.971 9.07046 36.611 8.49446 37.427 8.07846C38.259 7.64646 39.211 7.43046 40.283 7.43046C41.003 7.43046 41.627 7.49446 42.155 7.62246C42.699 7.75046 43.155 7.90246 43.523 8.07846C43.891 8.25446 44.179 8.43046 44.387 8.60646C44.611 8.76646 44.763 8.89446 44.843 8.99046C45.291 9.40646 45.539 9.76646 45.587 10.0705C45.635 10.3585 45.467 10.7665 45.083 11.2945C44.683 11.8545 44.283 12.1665 43.883 12.2305C43.499 12.2945 43.059 12.1585 42.563 11.8225C42.371 11.6465 42.179 11.4865 41.987 11.3425C41.795 11.1985 41.563 11.0865 41.291 11.0065C41.035 10.9105 40.691 10.8625 40.259 10.8625C40.003 10.8625 39.763 10.9025 39.539 10.9825C39.315 11.0465 39.123 11.1425 38.963 11.2705C38.803 11.3985 38.675 11.5585 38.579 11.7505C38.483 11.9265 38.435 12.1265 38.435 12.3505C38.435 12.7185 38.555 13.0145 38.795 13.2385C39.051 13.4625 39.379 13.6465 39.779 13.7905C40.195 13.9185 40.651 14.0465 41.147 14.1745C41.659 14.2865 42.179 14.4225 42.707 14.5825C43.187 14.7425 43.651 14.9425 44.099 15.1825C44.547 15.4065 44.947 15.6945 45.299 16.0465C45.651 16.3985 45.931 16.8385 46.139 17.3665C46.363 17.8945 46.475 18.5425 46.475 19.3105C46.475 20.2705 46.291 21.0945 45.923 21.7825C45.555 22.4705 45.067 23.0305 44.459 23.4625C43.851 23.8945 43.195 24.2065 42.491 24.3985C41.787 24.6065 41.099 24.7105 40.427 24.7105ZM57.8005 24.4465C57.2085 24.4465 56.7685 24.3425 56.4805 24.1345C56.2085 23.9265 56.0725 23.6705 56.0725 23.3665L56.3125 22.9585C56.2165 23.1185 56.0325 23.3185 55.7605 23.5585C55.4885 23.7825 55.1365 23.9905 54.7045 24.1825C54.2725 24.3585 53.7365 24.4465 53.0965 24.4465C52.3605 24.4465 51.6565 24.2865 50.9845 23.9665C50.3285 23.6465 49.7445 23.2065 49.2325 22.6465C48.7205 22.0705 48.3125 21.4225 48.0085 20.7025C47.7205 19.9825 47.5765 19.2225 47.5765 18.4225C47.5765 17.6385 47.7205 16.8945 48.0085 16.1905C48.3125 15.4705 48.7205 14.8385 49.2325 14.2945C49.7605 13.7345 50.3525 13.2945 51.0085 12.9745C51.6645 12.6545 52.3605 12.4945 53.0965 12.4945C53.6885 12.4945 54.1925 12.5825 54.6085 12.7585C55.0245 12.9185 55.3685 13.1105 55.6405 13.3345C55.9285 13.5585 56.1445 13.7745 56.2885 13.9825L56.0965 13.6465C56.0805 13.2625 56.2085 12.9745 56.4805 12.7825C56.7685 12.5745 57.2165 12.4705 57.8245 12.4705C58.4005 12.4705 58.8085 12.5585 59.0485 12.7345C59.3045 12.9105 59.4565 13.1425 59.5045 13.4305C59.5685 13.7185 59.6005 14.0225 59.6005 14.3425V22.6225C59.6005 22.9265 59.5685 23.2225 59.5045 23.5105C59.4565 23.7985 59.3045 24.0305 59.0485 24.2065C58.8085 24.3665 58.3925 24.4465 57.8005 24.4465ZM53.6245 20.8705C54.0405 20.8705 54.4165 20.7665 54.7525 20.5585C55.1045 20.3345 55.3765 20.0385 55.5685 19.6705C55.7765 19.3025 55.8805 18.8945 55.8805 18.4465C55.8805 17.9825 55.7765 17.5745 55.5685 17.2225C55.3605 16.8545 55.0805 16.5665 54.7285 16.3585C54.3765 16.1345 53.9925 16.0225 53.5765 16.0225C53.1125 16.0225 52.6965 16.1345 52.3285 16.3585C51.9765 16.5825 51.6885 16.8785 51.4645 17.2465C51.2565 17.6145 51.1525 18.0305 51.1525 18.4945C51.1525 18.9265 51.2565 19.3265 51.4645 19.6945C51.6885 20.0465 51.9845 20.3345 52.3525 20.5585C52.7365 20.7665 53.1605 20.8705 53.6245 20.8705ZM64.7 24.4705C64.14 24.4705 63.732 24.3905 63.476 24.2305C63.22 24.0545 63.06 23.8225 62.996 23.5345C62.948 23.2465 62.924 22.9505 62.924 22.6465V16.1185L62.108 16.1665C61.66 16.1665 61.34 16.0225 61.148 15.7345C60.956 15.4465 60.86 14.9825 60.86 14.3425C60.86 13.7185 60.964 13.2705 61.172 12.9985C61.38 12.7105 61.716 12.5665 62.18 12.5665L62.924 12.6145V11.3905C62.924 10.8465 63.012 10.3105 63.188 9.78246C63.364 9.25446 63.644 8.78246 64.028 8.36646C64.412 7.93446 64.9 7.59046 65.492 7.33446C66.084 7.07846 66.804 6.95046 67.652 6.95046C67.956 6.95046 68.244 6.98246 68.516 7.04646C68.804 7.11046 69.036 7.26246 69.212 7.50246C69.388 7.74246 69.476 8.16646 69.476 8.77446C69.476 9.35046 69.38 9.76646 69.188 10.0225C69.012 10.2785 68.78 10.4305 68.492 10.4785C68.22 10.5265 67.932 10.5505 67.628 10.5505C67.372 10.5505 67.156 10.5745 66.98 10.6225C66.82 10.6545 66.708 10.7265 66.644 10.8385C66.58 10.9505 66.548 11.1185 66.548 11.3425V12.6625C66.788 12.6305 67.1 12.6065 67.484 12.5905C67.884 12.5745 68.26 12.5665 68.612 12.5665C68.932 12.5665 69.26 12.5745 69.596 12.5905C69.948 12.6065 70.228 12.6225 70.436 12.6385V10.2145C70.436 9.89446 70.46 9.60646 70.508 9.35046C70.572 9.09446 70.732 8.88646 70.988 8.72646C71.244 8.55046 71.66 8.46246 72.236 8.46246C72.812 8.46246 73.22 8.55046 73.46 8.72646C73.716 8.90246 73.868 9.12646 73.916 9.39846C73.98 9.67046 74.012 9.96646 74.012 10.2865V12.6385L75.62 12.5665C75.94 12.5665 76.236 12.5985 76.508 12.6625C76.78 12.7105 76.996 12.8625 77.156 13.1185C77.332 13.3745 77.42 13.7985 77.42 14.3905C77.42 14.9665 77.332 15.3825 77.156 15.6385C76.98 15.8945 76.756 16.0545 76.484 16.1185C76.212 16.1665 75.916 16.1905 75.596 16.1905L74.012 16.1185V19.8145C74.012 20.1665 74.044 20.4305 74.108 20.6065C74.188 20.7665 74.308 20.8785 74.468 20.9425C74.628 21.0065 74.844 21.0385 75.116 21.0385C75.484 21.0385 75.804 21.0705 76.076 21.1345C76.348 21.1985 76.556 21.3425 76.7 21.5665C76.844 21.7905 76.916 22.1665 76.916 22.6945C76.916 23.2705 76.828 23.6865 76.652 23.9425C76.476 24.1985 76.244 24.3505 75.956 24.3985C75.684 24.4465 75.404 24.4705 75.116 24.4705C74.108 24.4705 73.252 24.3025 72.548 23.9665C71.86 23.6145 71.332 23.1025 70.964 22.4305C70.612 21.7585 70.436 20.9345 70.436 19.9585V16.1185C70.292 16.1185 70.108 16.1265 69.884 16.1425C69.66 16.1425 69.436 16.1505 69.212 16.1665C68.988 16.1665 68.788 16.1665 68.612 16.1665C68.308 16.1665 67.948 16.1585 67.532 16.1425C67.132 16.1265 66.804 16.1105 66.548 16.0945V22.6945C66.548 22.9985 66.516 23.2865 66.452 23.5585C66.388 23.8305 66.228 24.0545 65.972 24.2305C65.716 24.3905 65.292 24.4705 64.7 24.4705ZM84.4482 24.6625C83.6962 24.6625 82.9442 24.5185 82.1922 24.2305C81.4562 23.9265 80.7842 23.5025 80.1762 22.9585C79.5682 22.4145 79.0882 21.7665 78.7362 21.0145C78.3842 20.2465 78.2082 19.3985 78.2082 18.4705C78.2082 17.6065 78.3682 16.8065 78.6882 16.0705C79.0082 15.3185 79.4562 14.6545 80.0322 14.0785C80.6082 13.5025 81.2642 13.0545 82.0002 12.7345C82.7522 12.3985 83.5522 12.2305 84.4002 12.2305C85.5522 12.2305 86.5922 12.5105 87.5202 13.0705C88.4642 13.6145 89.2162 14.3585 89.7762 15.3025C90.3362 16.2465 90.6162 17.2945 90.6162 18.4465C90.6162 19.4225 90.4322 20.2945 90.0642 21.0625C89.7122 21.8145 89.2322 22.4625 88.6242 23.0065C88.0322 23.5505 87.3682 23.9665 86.6322 24.2545C85.9122 24.5265 85.1842 24.6625 84.4482 24.6625ZM84.4002 21.0385C84.7842 21.0385 85.1762 20.9425 85.5762 20.7505C85.9762 20.5585 86.3122 20.2705 86.5842 19.8865C86.8562 19.5025 86.9922 19.0145 86.9922 18.4225C86.9922 17.9105 86.8802 17.4625 86.6562 17.0785C86.4322 16.6945 86.1202 16.3985 85.7202 16.1905C85.3362 15.9665 84.8882 15.8545 84.3762 15.8545C83.8962 15.8545 83.4642 15.9665 83.0802 16.1905C82.7122 16.4145 82.4082 16.7265 82.1682 17.1265C81.9442 17.5105 81.8322 17.9505 81.8322 18.4465C81.8322 19.0225 81.9602 19.5105 82.2162 19.9105C82.4882 20.2945 82.8242 20.5825 83.2242 20.7745C83.6242 20.9505 84.0162 21.0385 84.4002 21.0385ZM101.994 12.9745C102.346 13.3105 102.57 13.6145 102.666 13.8865C102.778 14.1425 102.778 14.4065 102.666 14.6785C102.554 14.9345 102.33 15.2385 101.994 15.5905L94.3617 23.8465C94.0577 24.1665 93.7777 24.3825 93.5217 24.4945C93.2657 24.6225 93.0017 24.6385 92.7297 24.5425C92.4737 24.4465 92.1777 24.2385 91.8417 23.9185C91.5057 23.5825 91.2817 23.2865 91.1697 23.0305C91.0737 22.7585 91.0817 22.4945 91.1937 22.2385C91.3217 21.9665 91.5377 21.6705 91.8417 21.3505L99.4737 13.0705C99.9697 12.5745 100.386 12.3185 100.722 12.3025C101.074 12.2705 101.498 12.4945 101.994 12.9745ZM91.8417 12.9745C92.1777 12.6545 92.4737 12.4465 92.7297 12.3505C93.0017 12.2545 93.2657 12.2705 93.5217 12.3985C93.7777 12.5105 94.0577 12.7345 94.3617 13.0705L101.994 21.3505C102.314 21.6865 102.53 21.9825 102.642 22.2385C102.77 22.4945 102.786 22.7585 102.69 23.0305C102.594 23.2865 102.362 23.5825 101.994 23.9185C101.658 24.2385 101.362 24.4465 101.106 24.5425C100.85 24.6385 100.594 24.6225 100.338 24.4945C100.098 24.3825 99.8097 24.1665 99.4737 23.8465L91.8417 15.5905C91.5217 15.2545 91.3057 14.9585 91.1937 14.7025C91.0817 14.4305 91.0737 14.1585 91.1697 13.8865C91.2817 13.6145 91.5057 13.3105 91.8417 12.9745ZM111.412 24.6865C110.244 24.6865 109.212 24.4625 108.316 24.0145C107.436 23.5505 106.684 22.9425 106.06 22.1905C105.452 21.4225 104.996 20.5665 104.692 19.6225C104.388 18.6625 104.236 17.6865 104.236 16.6945V9.51846C104.236 9.19846 104.26 8.90246 104.308 8.63046C104.372 8.34246 104.532 8.11046 104.788 7.93446C105.044 7.75846 105.468 7.67046 106.06 7.67046C106.668 7.67046 107.1 7.75846 107.356 7.93446C107.612 8.11046 107.764 8.34246 107.812 8.63046C107.876 8.90246 107.908 9.20646 107.908 9.54246V16.6945C107.908 17.3985 108.02 18.0785 108.244 18.7345C108.484 19.3905 108.868 19.9345 109.396 20.3665C109.924 20.7985 110.62 21.0145 111.484 21.0145C112.22 21.0145 112.852 20.8385 113.38 20.4865C113.908 20.1185 114.316 19.6145 114.604 18.9745C114.892 18.3185 115.036 17.5505 115.036 16.6705V9.37446C115.036 9.08646 115.068 8.81446 115.132 8.55846C115.196 8.30246 115.356 8.09446 115.612 7.93446C115.868 7.75846 116.292 7.67046 116.884 7.67046C117.476 7.67046 117.892 7.76646 118.132 7.95846C118.388 8.13446 118.54 8.35846 118.588 8.63046C118.652 8.90246 118.684 9.20646 118.684 9.54246V16.7425C118.684 17.7505 118.524 18.7265 118.204 19.6705C117.9 20.6145 117.436 21.4625 116.812 22.2145C116.204 22.9665 115.444 23.5665 114.532 24.0145C113.636 24.4625 112.596 24.6865 111.412 24.6865ZM122.488 24.4705C121.912 24.4705 121.496 24.3905 121.24 24.2305C120.984 24.0545 120.824 23.8225 120.76 23.5345C120.712 23.2465 120.688 22.9505 120.688 22.6465V9.51846C120.688 9.19846 120.712 8.90246 120.76 8.63046C120.824 8.35846 120.984 8.13446 121.24 7.95846C121.496 7.78246 121.92 7.69446 122.512 7.69446C123.12 7.69446 123.544 7.78246 123.784 7.95846C124.04 8.13446 124.192 8.35846 124.24 8.63046C124.304 8.90246 124.336 9.20646 124.336 9.54246V22.6705C124.336 22.9745 124.304 23.2705 124.24 23.5585C124.176 23.8305 124.016 24.0545 123.76 24.2305C123.52 24.3905 123.096 24.4705 122.488 24.4705Z"
    fill="white" />
</svg>
  